<?xml version="1.0" encoding="iso-8859-1"?>
<!-- Generator: Adobe Illustrator 19.0.0, SVG Export Plug-In . SVG Version: 6.00 Build 0)  -->
<svg version="1.1" id="Layer_1" xmlns="http://www.w3.org/2000/svg" xmlns:xlink="http://www.w3.org/1999/xlink" x="0px" y="0px"
	 viewBox="0 0 512 512" style="enable-background:new 0 0 512 512;" xml:space="preserve">
<g transform="translate(1 1)">
	<g>
		<g>
			<path d="M233.667,374.467c-16.213,0-29.867,13.653-29.867,29.867c0,16.213,13.653,29.867,29.867,29.867
				s29.867-13.653,29.867-29.867C263.533,388.12,249.88,374.467,233.667,374.467z M233.667,417.133c-6.827,0-12.8-5.973-12.8-12.8
				s5.973-12.8,12.8-12.8s12.8,5.973,12.8,12.8S240.493,417.133,233.667,417.133z"/>
			<path d="M162.84,135.533H82.627c-17.92,0-32.427,14.507-32.427,32.427v80.213c0,17.92,14.507,32.427,32.427,32.427h80.213
				c17.92,0,32.427-14.507,32.427-32.427V167.96C195.267,150.04,180.76,135.533,162.84,135.533z M178.2,195.267V229.4v18.773
				c0,3.288-1.021,6.317-2.756,8.806c-1.464-1.261-3.44-1.979-5.777-1.979c-5.12,0-8.533,3.413-8.533,8.533h-17.067
				c0-5.12-3.413-8.533-8.533-8.533S127,258.413,127,263.533h-17.067c0-5.12-3.413-8.533-8.533-8.533s-8.533,3.413-8.533,8.533
				h-10.24c-2.514,0-4.873-0.606-6.96-1.66c-0.579-3.651-3.088-6.161-6.74-6.74c-1.054-2.087-1.66-4.446-1.66-6.96v-10.24
				c5.12,0,8.533-3.413,8.533-8.533c0-5.12-3.413-8.533-8.533-8.533V203.8c5.12,0,8.533-3.413,8.533-8.533s-3.413-8.533-8.533-8.533
				v-17.067c5.12,0,8.533-3.413,8.533-8.533c0-2.338-0.718-4.314-1.979-5.777c2.489-1.734,5.517-2.756,8.806-2.756
				c0,0,12.042,0,18.773,0c12.238,0,18.805,0,34.133,0c12.263,0,27.307,0,27.307,0c1.3,0,2.553,0.176,3.755,0.475
				c-3.365,1.098-5.462,4.051-5.462,8.059c0,5.12,3.413,8.533,8.533,8.533c4.008,0,6.961-2.098,8.059-5.462
				c0.299,1.203,0.475,2.456,0.475,3.756V195.267z"/>
			<path d="M127,297.667c-37.547,0-68.267,30.72-68.267,68.267S89.453,434.2,127,434.2c37.547,0,68.267-30.72,68.267-68.267
				S164.547,297.667,127,297.667z M127,417.133c-28.16,0-51.2-23.04-51.2-51.2c0-25.253,18.533-46.375,42.667-50.47v24.87
				c0,5.12,3.413,8.533,8.533,8.533s8.533-3.413,8.533-8.533v-24.87c24.134,4.095,42.667,25.217,42.667,50.47
				C178.2,394.093,155.16,417.133,127,417.133z"/>
			<path d="M365.933,84.333c-65.707,0-119.467,53.76-119.467,119.467s53.76,119.467,119.467,119.467S485.4,269.507,485.4,203.8
				S431.64,84.333,365.933,84.333z M365.933,306.2c-56.32,0-102.4-46.08-102.4-102.4s46.08-102.4,102.4-102.4
				s102.4,46.08,102.4,102.4S422.253,306.2,365.933,306.2z"/>
			<path d="M365.933,118.467c-46.933,0-85.333,38.4-85.333,85.333s38.4,85.333,85.333,85.333s85.333-38.4,85.333-85.333
				S412.867,118.467,365.933,118.467z M365.933,272.067c-37.547,0-68.267-30.72-68.267-68.267s30.72-68.267,68.267-68.267
				S434.2,166.253,434.2,203.8S403.48,272.067,365.933,272.067z"/>
			<path d="M383,152.6c-5.12,0-8.533,3.413-8.533,8.533s3.413,8.533,8.533,8.533c9.387,0,17.067,11.947,17.067,25.6
				c0,5.12,3.413,8.533,8.533,8.533s8.533-3.413,8.533-8.533C417.133,171.373,401.773,152.6,383,152.6z"/>
			<path d="M152.6,340.333c-5.12,0-8.533,3.413-8.533,8.533v8.533c0,9.387-7.68,17.067-17.067,17.067s-17.067-7.68-17.067-17.067
				v-8.533c0-5.12-3.413-8.533-8.533-8.533s-8.533,3.413-8.533,8.533v8.533c0,18.773,15.36,34.133,34.133,34.133
				c18.773,0,34.133-15.36,34.133-34.133v-8.533C161.133,343.747,157.72,340.333,152.6,340.333z"/>
			<path d="M127,161.133c0,5.12,3.413,8.533,8.533,8.533s8.533-3.413,8.533-8.533s-3.413-8.533-8.533-8.533S127,156.013,127,161.133
				z"/>
			<path d="M92.867,161.133c0,5.12,3.413,8.533,8.533,8.533s8.533-3.413,8.533-8.533s-3.413-8.533-8.533-8.533
				S92.867,156.013,92.867,161.133z"/>
			<path d="M84.333,186.733c5.12,0,8.533-3.413,8.533-8.533s-3.413-8.533-8.533-8.533c-5.12,0-8.533,3.413-8.533,8.533
				S79.213,186.733,84.333,186.733z"/>
			<path d="M118.467,186.733c5.12,0,8.533-3.413,8.533-8.533s-3.413-8.533-8.533-8.533s-8.533,3.413-8.533,8.533
				S113.347,186.733,118.467,186.733z"/>
			<path d="M152.6,169.667c-5.12,0-8.533,3.413-8.533,8.533s3.413,8.533,8.533,8.533c5.12,0,8.533-3.413,8.533-8.533
				S157.72,169.667,152.6,169.667z"/>
			<path d="M169.667,186.733c-5.12,0-8.533,3.413-8.533,8.533s3.413,8.533,8.533,8.533s8.533-3.413,8.533-8.533
				S174.787,186.733,169.667,186.733z"/>
			<path d="M135.533,203.8c5.12,0,8.533-3.413,8.533-8.533s-3.413-8.533-8.533-8.533S127,190.147,127,195.267
				S130.413,203.8,135.533,203.8z"/>
			<path d="M101.4,203.8c5.12,0,8.533-3.413,8.533-8.533s-3.413-8.533-8.533-8.533s-8.533,3.413-8.533,8.533
				S96.28,203.8,101.4,203.8z"/>
			<path d="M84.333,220.867c5.12,0,8.533-3.413,8.533-8.533s-3.413-8.533-8.533-8.533c-5.12,0-8.533,3.413-8.533,8.533
				S79.213,220.867,84.333,220.867z"/>
			<path d="M118.467,203.8c-5.12,0-8.533,3.413-8.533,8.533s3.413,8.533,8.533,8.533s8.533-3.413,8.533-8.533
				S123.587,203.8,118.467,203.8z"/>
			<path d="M152.6,203.8c-5.12,0-8.533,3.413-8.533,8.533s3.413,8.533,8.533,8.533c5.12,0,8.533-3.413,8.533-8.533
				S157.72,203.8,152.6,203.8z"/>
			<path d="M169.667,220.867c-5.12,0-8.533,3.413-8.533,8.533c0,5.12,3.413,8.533,8.533,8.533s8.533-3.413,8.533-8.533
				C178.2,224.28,174.787,220.867,169.667,220.867z"/>
			<path d="M135.533,220.867c-5.12,0-8.533,3.413-8.533,8.533c0,5.12,3.413,8.533,8.533,8.533s8.533-3.413,8.533-8.533
				C144.067,224.28,140.653,220.867,135.533,220.867z"/>
			<path d="M101.4,220.867c-5.12,0-8.533,3.413-8.533,8.533c0,5.12,3.413,8.533,8.533,8.533s8.533-3.413,8.533-8.533
				C109.933,224.28,106.52,220.867,101.4,220.867z"/>
			<path d="M84.333,237.933c-5.12,0-8.533,3.413-8.533,8.533S79.213,255,84.333,255c5.12,0,8.533-3.413,8.533-8.533
				S89.453,237.933,84.333,237.933z"/>
			<path d="M118.467,237.933c-5.12,0-8.533,3.413-8.533,8.533s3.413,8.533,8.533,8.533s8.533-3.413,8.533-8.533
				S123.587,237.933,118.467,237.933z"/>
			<path d="M152.6,237.933c-5.12,0-8.533,3.413-8.533,8.533S147.48,255,152.6,255c5.12,0,8.533-3.413,8.533-8.533
				S157.72,237.933,152.6,237.933z"/>
			<path d="M195.267,84.333h17.92l1.707-5.973c5.973-17.067,23.04-28.16,40.96-28.16h33.28c5.12,0,8.533-3.413,8.533-8.533
				s-3.413-8.533-8.533-8.533h-33.28c-23.04,0-44.373,13.653-54.613,34.133h-5.973c-5.12,0-8.533,3.413-8.533,8.533
				S190.147,84.333,195.267,84.333z"/>
			<path d="M475.16,58.733H255.853c-12.528,0-23.529,6.846-29.72,16.976c-0.1,0.16-0.194,0.323-0.292,0.484
				c-0.114,0.193-0.23,0.385-0.341,0.58c-2.706,4.686-4.36,9.991-4.597,15.559c-0.011,0.178-0.029,0.355-0.037,0.534h-51.2V58.733
				H101.4v34.133h-8.533V58.733H24.6v34.133H7.533H-1v384h477.867V348.844C495.274,348.361,511,332.355,511,313.027V93.72
				C511,74.947,494.787,58.733,475.16,58.733z M118.467,75.8H152.6v17.067h-34.133V75.8z M41.667,75.8H75.8v17.067H41.667V75.8z
				 M459.8,459.8H16.067V109.933H24.6h68.267h8.533h68.267h51.2V313.88c0,18.773,15.36,34.987,34.987,34.987H459.8V459.8z
				 M493.08,93.72v219.307c0,9.387-7.68,17.92-17.92,17.92H255.853c-9.387,0-17.92-7.68-17.92-17.92V109.933V93.72
				c0-9.387,8.533-17.92,17.92-17.92h220.16C485.4,75.8,493.933,84.333,493.08,93.72z"/>
		</g>
	</g>
</g>
<g>
</g>
<g>
</g>
<g>
</g>
<g>
</g>
<g>
</g>
<g>
</g>
<g>
</g>
<g>
</g>
<g>
</g>
<g>
</g>
<g>
</g>
<g>
</g>
<g>
</g>
<g>
</g>
<g>
</g>
</svg>
