<?xml version="1.0" encoding="iso-8859-1"?>
<!-- Generator: Adobe Illustrator 19.0.0, SVG Export Plug-In . SVG Version: 6.00 Build 0)  -->
<svg version="1.1" id="Layer_1" xmlns="http://www.w3.org/2000/svg" xmlns:xlink="http://www.w3.org/1999/xlink" x="0px" y="0px"
	 viewBox="0 0 512 512" style="enable-background:new 0 0 512 512;" xml:space="preserve">
<path style="fill:#464655;" d="M225.103,432.552c-49.225-12.639-100.844-12.639-150.069,0c0-20.598,0-41.195,0-61.793
	c49.225,12.639,100.844,12.639,150.069,0C225.103,391.357,225.103,411.954,225.103,432.552z"/>
<path style="fill:#5B5D6E;" d="M75.034,370.759H67.5c-5.452-6.944-13.475-11.829-22.782-13.159l-21.4-3.058
	c-5.318-0.76-10.076,3.367-10.076,8.739v76.747c0,5.372,4.758,9.499,10.076,8.739l21.4-3.058c9.306-1.33,17.33-6.215,22.782-13.159
	h7.534c4.875,0,8.828-3.953,8.828-8.828v-44.138C83.862,374.711,79.91,370.759,75.034,370.759z"/>
<path style="fill:#C7CFE2;" d="M361.931,423.724H348.69v-44.138h13.241c12.189,0,22.069,9.88,22.069,22.069l0,0
	C384,413.844,374.12,423.724,361.931,423.724z"/>
<g>
	<path style="fill:#5B5D6E;" d="M348.69,432.552H225.103c-4.875,0-8.828-3.953-8.828-8.828v-44.138c0-4.875,3.953-8.828,8.828-8.828
		H348.69c4.875,0,8.828,3.953,8.828,8.828v44.138C357.517,428.599,353.565,432.552,348.69,432.552z"/>
	<path style="fill:#5B5D6E;" d="M384,512H189.793c-4.875,0-8.828-3.953-8.828-8.828v-35.31c0-9.751,7.904-17.655,17.655-17.655
		h176.552c9.751,0,17.655,7.904,17.655,17.655v35.31C392.828,508.047,388.875,512,384,512z"/>
</g>
<path style="fill:#464655;" d="M375.172,450.207h-35.31v-96c0-0.609-0.494-1.103-1.103-1.103H235.034
	c-0.609,0-1.103,0.494-1.103,1.103v96h-35.31c-9.751,0-17.655,7.904-17.655,17.655v8.828h211.862v-8.828
	C392.828,458.111,384.924,450.207,375.172,450.207z"/>
<g>
	<rect x="260.414" y="353.103" style="fill:#AFB9D2;" width="17.655" height="97.103"/>
	<rect x="295.724" y="353.103" style="fill:#AFB9D2;" width="17.655" height="97.103"/>
	<path style="fill:#AFB9D2;" d="M66.207,229.517c-4.875,0-8.828,3.953-8.828,8.828v35.31c0,4.875,3.953,8.828,8.828,8.828h17.655
		v-52.966H66.207z"/>
</g>
<path style="fill:#5B5D6E;" d="M445.793,8.828H110.345c-4.875,0-8.828,3.953-8.828,8.828v26.483h353.103V17.655
	C454.621,12.78,450.668,8.828,445.793,8.828z"/>
<path style="fill:#AFB9D2;" d="M207.448,0h-52.966c-4.875,0-8.828,3.953-8.828,8.828v35.31h70.621V8.828
	C216.276,3.953,212.323,0,207.448,0z"/>
<path style="fill:#D7DEED;" d="M472.276,353.103H101.517c-14.626,0-26.483-11.857-26.483-26.483V61.793
	c0-14.626,11.857-26.483,26.483-26.483h370.759c14.626,0,26.483,11.857,26.483,26.483v264.828
	C498.759,341.247,486.902,353.103,472.276,353.103z"/>
<path style="fill:#C7CFE2;" d="M472.276,52.966c4.867,0,8.828,3.96,8.828,8.828v264.828c0,4.867-3.96,8.828-8.828,8.828H101.517
	c-4.867,0-8.828-3.96-8.828-8.828V61.793c0-4.867,3.96-8.828,8.828-8.828H472.276 M472.276,35.31H101.517
	c-14.626,0-26.483,11.857-26.483,26.483v264.828c0,14.626,11.857,26.483,26.483,26.483h370.759
	c14.626,0,26.483-11.857,26.483-26.483V61.793C498.759,47.167,486.902,35.31,472.276,35.31L472.276,35.31z"/>
<path style="fill:#464655;" d="M472.276,256H295.724c-14.626,0-26.483-11.857-26.483-26.483V52.966
	c0-14.626,11.857-26.483,26.483-26.483h176.552c14.626,0,26.483,11.857,26.483,26.483v176.552
	C498.759,244.143,486.902,256,472.276,256z"/>
<path style="fill:#5B5D6E;" d="M463.448,229.517H304.552c-4.875,0-8.828-3.953-8.828-8.828V61.793c0-4.875,3.953-8.828,8.828-8.828
	h158.897c4.875,0,8.828,3.953,8.828,8.828V220.69C472.276,225.565,468.323,229.517,463.448,229.517z"/>
<path style="fill:#707487;" d="M384,220.69c-43.806,0-79.448-35.642-79.448-79.448S340.194,61.793,384,61.793
	s79.448,35.642,79.448,79.448S427.806,220.69,384,220.69z M384,79.448c-34.073,0-61.793,27.72-61.793,61.793
	s27.72,61.793,61.793,61.793s61.793-27.72,61.793-61.793S418.073,79.448,384,79.448z"/>
<circle style="fill:#464655;" cx="384" cy="141.241" r="44.138"/>
<path style="fill:#707487;" d="M384,158.897c-9.737,0-17.655-7.918-17.655-17.655s7.918-17.655,17.655-17.655
	s17.655,7.918,17.655,17.655S393.737,158.897,384,158.897z M384,141.241h0.086H384z M384,141.241h0.086H384z M384,141.241h0.086H384
	z M384,141.237h0.086H384z M384,141.237h0.086H384z M384,141.233h0.086H384z M384,141.233h0.086H384z M384,141.233h0.086H384z"/>
<path style="fill:#789178;" d="M207.448,194.207h-61.793c-4.875,0-8.828-3.953-8.828-8.828v-79.448c0-4.875,3.953-8.828,8.828-8.828
	h61.793c4.875,0,8.828,3.953,8.828,8.828v79.448C216.276,190.254,212.323,194.207,207.448,194.207z"/>
<circle style="fill:#EFF2FA;" cx="176.552" cy="264.828" r="35.31"/>
<circle style="fill:#FFFFFF;" cx="238.345" cy="242.759" r="13.241"/>
<circle style="fill:#FF6464;" cx="238.345" cy="286.897" r="13.241"/>
<path style="fill:#D7DEED;" d="M428.138,75.034c-12.171,0-22.069,9.898-22.069,22.069s9.898,22.069,22.069,22.069
	c12.171,0,22.069-9.898,22.069-22.069S440.309,75.034,428.138,75.034z"/>
<g>
	<path style="fill:#FFFFFF;" d="M397.241,114.759c-7.303,0-13.241,5.939-13.241,13.241c0,7.303,5.939,13.241,13.241,13.241
		c7.303,0,13.241-5.939,13.241-13.241C410.483,120.697,404.544,114.759,397.241,114.759z"/>
	<path style="fill:#FFFFFF;" d="M421.382,118.004c-3.578-5.743-8.401-10.566-14.144-14.144
		C409.416,110.57,414.671,115.826,421.382,118.004z"/>
	<path style="fill:#FFFFFF;" d="M440.141,115.577c5.972-3.893,9.943-10.575,10.038-18.2c-5.879-8.84-13.474-16.436-22.315-22.315
		c-7.625,0.095-14.307,4.066-18.2,10.038C423.118,91.276,433.965,102.123,440.141,115.577z"/>
</g>
<path style="fill:#464655;" d="M57.379,401.655c0-14.626-19.762-26.483-44.138-26.483v52.966
	C37.618,428.138,57.379,416.281,57.379,401.655z"/>
<g>
	<rect x="260.414" y="414.897" style="fill:#959CB3;" width="17.655" height="35.31"/>
	<rect x="295.724" y="414.897" style="fill:#959CB3;" width="17.655" height="35.31"/>
</g>
<g>
</g>
<g>
</g>
<g>
</g>
<g>
</g>
<g>
</g>
<g>
</g>
<g>
</g>
<g>
</g>
<g>
</g>
<g>
</g>
<g>
</g>
<g>
</g>
<g>
</g>
<g>
</g>
<g>
</g>
</svg>
